<svg width="24" height="24" viewBox="0 0 24 24" fill="none" xmlns="http://www.w3.org/2000/svg">
<mask id="mask0_21_17856" style="mask-type:alpha" maskUnits="userSpaceOnUse" x="0" y="0" width="24" height="24">
<rect width="24" height="24" fill="#D9D9D9"/>
</mask>
<g mask="url(#mask0_21_17856)">
<path d="M15.5 22V16H12L15.05 8.3C15.2167 7.9 15.475 7.58333 15.825 7.35C16.175 7.11667 16.5667 7 17 7C17.4333 7 17.825 7.11667 18.175 7.35C18.525 7.58333 18.7833 7.9 18.95 8.3L22 16H18.5V22H15.5ZM17 6C16.45 6 15.9792 5.80417 15.5875 5.4125C15.1958 5.02083 15 4.55 15 4C15 3.45 15.1958 2.97917 15.5875 2.5875C15.9792 2.19583 16.45 2 17 2C17.55 2 18.0208 2.19583 18.4125 2.5875C18.8042 2.97917 19 3.45 19 4C19 4.55 18.8042 5.02083 18.4125 5.4125C18.0208 5.80417 17.55 6 17 6Z" fill="#1C1B1F"/>
<path d="M4.5 22V15H2V9C2 8.45 2.19583 7.97917 2.5875 7.5875C2.97917 7.19583 3.45 7 4 7H8C8.55 7 9.02083 7.19583 9.4125 7.5875C9.80417 7.97917 10 8.45 10 9V15H7.5V22H4.5ZM6 6C5.45 6 4.97917 5.80417 4.5875 5.4125C4.19583 5.02083 4 4.55 4 4C4 3.45 4.19583 2.97917 4.5875 2.5875C4.97917 2.19583 5.45 2 6 2C6.55 2 7.02083 2.19583 7.4125 2.5875C7.80417 2.97917 8 3.45 8 4C8 4.55 7.80417 5.02083 7.4125 5.4125C7.02083 5.80417 6.55 6 6 6Z" fill="#1C1B1F"/>
</g>
</svg>
