<svg width="25" height="24" viewBox="0 0 25 24" fill="none" xmlns="http://www.w3.org/2000/svg">
<path d="M0.5 24V21.3333H3.16667V2.66667C3.16667 1.93333 3.42778 1.30556 3.95 0.783333C4.47222 0.261111 5.1 0 5.83333 0H19.1667C19.9 0 20.5278 0.261111 21.05 0.783333C21.5722 1.30556 21.8333 1.93333 21.8333 2.66667V21.3333H24.5V24H0.5ZM16.5 21.3333H19.1667V2.66667H13.1667V1.2C14.1444 1.37778 14.9444 1.83333 15.5667 2.56667C16.1889 3.3 16.5 4.15556 16.5 5.13333V21.3333ZM11.1667 13.3333C11.5444 13.3333 11.8611 13.2056 12.1167 12.95C12.3722 12.6944 12.5 12.3778 12.5 12C12.5 11.6222 12.3722 11.3056 12.1167 11.05C11.8611 10.7944 11.5444 10.6667 11.1667 10.6667C10.7889 10.6667 10.4722 10.7944 10.2167 11.05C9.96111 11.3056 9.83333 11.6222 9.83333 12C9.83333 12.3778 9.96111 12.6944 10.2167 12.95C10.4722 13.2056 10.7889 13.3333 11.1667 13.3333Z" fill="#F8D585"/>
</svg>
