<svg width="25" height="27" viewBox="0 0 25 27" fill="none" xmlns="http://www.w3.org/2000/svg">
<path d="M3.16667 26.9999C2.43333 26.9999 1.80556 26.7388 1.28333 26.2166C0.761111 25.6944 0.5 25.0666 0.5 24.3333V5.66658C0.5 4.93325 0.761111 4.30547 1.28333 3.78325C1.80556 3.26103 2.43333 2.99992 3.16667 2.99992H8.76667C9.05556 2.19992 9.53889 1.55547 10.2167 1.06659C10.8944 0.577696 11.6556 0.333252 12.5 0.333252C13.3444 0.333252 14.1056 0.577696 14.7833 1.06659C15.4611 1.55547 15.9444 2.19992 16.2333 2.99992H21.8333C22.5667 2.99992 23.1944 3.26103 23.7167 3.78325C24.2389 4.30547 24.5 4.93325 24.5 5.66658V24.3333C24.5 25.0666 24.2389 25.6944 23.7167 26.2166C23.1944 26.7388 22.5667 26.9999 21.8333 26.9999H3.16667ZM5.83333 21.6666H15.1667V18.9999H5.83333V21.6666ZM5.83333 16.3333H19.1667V13.6666H5.83333V16.3333ZM5.83333 10.9999H19.1667V8.33325H5.83333V10.9999ZM12.5 4.66658C12.7889 4.66658 13.0278 4.57214 13.2167 4.38325C13.4056 4.19436 13.5 3.95547 13.5 3.66658C13.5 3.3777 13.4056 3.13881 13.2167 2.94992C13.0278 2.76103 12.7889 2.66659 12.5 2.66659C12.2111 2.66659 11.9722 2.76103 11.7833 2.94992C11.5944 3.13881 11.5 3.3777 11.5 3.66658C11.5 3.95547 11.5944 4.19436 11.7833 4.38325C11.9722 4.57214 12.2111 4.66658 12.5 4.66658Z" fill="#F8D585"/>
</svg>
