<svg width="25" height="24" viewBox="0 0 25 24" fill="none" xmlns="http://www.w3.org/2000/svg">
<path d="M12.5 13.3333C13.7889 13.3333 14.8889 12.8778 15.8 11.9667C16.7111 11.0556 17.1667 9.95556 17.1667 8.66667C17.1667 7.37778 16.7111 6.27778 15.8 5.36667C14.8889 4.45556 13.7889 4 12.5 4C11.2111 4 10.1111 4.45556 9.2 5.36667C8.28889 6.27778 7.83333 7.37778 7.83333 8.66667C7.83333 9.95556 8.28889 11.0556 9.2 11.9667C10.1111 12.8778 11.2111 13.3333 12.5 13.3333ZM3.16667 24C2.43333 24 1.80556 23.7389 1.28333 23.2167C0.761111 22.6944 0.5 22.0667 0.5 21.3333V2.66667C0.5 1.93333 0.761111 1.30556 1.28333 0.783333C1.80556 0.261111 2.43333 0 3.16667 0H21.8333C22.5667 0 23.1944 0.261111 23.7167 0.783333C24.2389 1.30556 24.5 1.93333 24.5 2.66667V21.3333C24.5 22.0667 24.2389 22.6944 23.7167 23.2167C23.1944 23.7389 22.5667 24 21.8333 24H3.16667ZM3.16667 21.3333H21.8333V19.8C20.6333 18.6222 19.2389 17.6944 17.65 17.0167C16.0611 16.3389 14.3444 16 12.5 16C10.6556 16 8.93889 16.3389 7.35 17.0167C5.76111 17.6944 4.36667 18.6222 3.16667 19.8V21.3333Z" fill="#F8D585"/>
</svg>
